<mxfile host="app.diagrams.net" agent="Mozilla/5.0 (Macintosh; Intel Mac OS X 10_15_7) AppleWebKit/537.36 (KHTML, like Gecko) Chrome/131.0.0.0 Safari/537.36" version="24.9.1">
  <diagram name="PÃ¡gina-1" id="N91MxdzN2epolRWzb8i4">
    <mxGraphModel dx="521" dy="332" grid="1" gridSize="10" guides="1" tooltips="1" connect="1" arrows="1" fold="1" page="1" pageScale="1" pageWidth="827" pageHeight="1169" math="0" shadow="0">
      <root>
        <mxCell id="0" />
        <mxCell id="1" parent="0" />
        <mxCell id="kZWhtJNA0DSKdZdHqCCg-6" style="edgeStyle=none;curved=1;rounded=0;orthogonalLoop=1;jettySize=auto;html=1;exitX=0.5;exitY=1;exitDx=0;exitDy=0;fontSize=12;startSize=8;endSize=8;" edge="1" parent="1" source="kZWhtJNA0DSKdZdHqCCg-7" target="kZWhtJNA0DSKdZdHqCCg-10">
          <mxGeometry relative="1" as="geometry" />
        </mxCell>
        <mxCell id="kZWhtJNA0DSKdZdHqCCg-7" value="&lt;font style=&quot;font-size: 14px;&quot;&gt;Client&lt;/font&gt;" style="rounded=1;whiteSpace=wrap;html=1;" vertex="1" parent="1">
          <mxGeometry x="99" y="20" width="102" height="49" as="geometry" />
        </mxCell>
        <mxCell id="kZWhtJNA0DSKdZdHqCCg-14" style="edgeStyle=orthogonalEdgeStyle;rounded=0;orthogonalLoop=1;jettySize=auto;html=1;exitX=0.5;exitY=1;exitDx=0;exitDy=0;entryX=0.5;entryY=0;entryDx=0;entryDy=0;" edge="1" parent="1" source="kZWhtJNA0DSKdZdHqCCg-8" target="kZWhtJNA0DSKdZdHqCCg-13">
          <mxGeometry relative="1" as="geometry" />
        </mxCell>
        <mxCell id="kZWhtJNA0DSKdZdHqCCg-8" value="Staking node" style="rounded=1;whiteSpace=wrap;html=1;fontSize=14;" vertex="1" parent="1">
          <mxGeometry x="555" y="185" width="161" height="54.75" as="geometry" />
        </mxCell>
        <mxCell id="kZWhtJNA0DSKdZdHqCCg-9" style="edgeStyle=none;curved=1;rounded=0;orthogonalLoop=1;jettySize=auto;html=1;exitX=1;exitY=0.5;exitDx=0;exitDy=0;fontSize=12;startSize=8;endSize=8;" edge="1" parent="1" source="kZWhtJNA0DSKdZdHqCCg-10" target="kZWhtJNA0DSKdZdHqCCg-8">
          <mxGeometry relative="1" as="geometry" />
        </mxCell>
        <mxCell id="kZWhtJNA0DSKdZdHqCCg-10" value="&lt;font style=&quot;font-size: 14px;&quot;&gt;Full node&lt;/font&gt;" style="rounded=1;whiteSpace=wrap;html=1;" vertex="1" parent="1">
          <mxGeometry x="78.75" y="185" width="142.5" height="57" as="geometry" />
        </mxCell>
        <mxCell id="kZWhtJNA0DSKdZdHqCCg-11" value="&lt;font&gt;Sends transaction request&lt;/font&gt;" style="text;strokeColor=none;fillColor=none;html=1;align=center;verticalAlign=middle;whiteSpace=wrap;rounded=0;fontSize=14;" vertex="1" parent="1">
          <mxGeometry x="9.870000000000001" y="116" width="164" height="30" as="geometry" />
        </mxCell>
        <mxCell id="kZWhtJNA0DSKdZdHqCCg-12" value="&lt;span style=&quot;color: rgb(0, 0, 0); font-family: Helvetica; font-size: 14px; font-style: normal; font-variant-ligatures: normal; font-variant-caps: normal; font-weight: 400; letter-spacing: normal; orphans: 2; text-indent: 0px; text-transform: none; widows: 2; word-spacing: 0px; -webkit-text-stroke-width: 0px; white-space: normal; background-color: rgb(255, 255, 255); text-decoration-thickness: initial; text-decoration-style: initial; text-decoration-color: initial; float: none; display: inline !important;&quot;&gt;Verifies transaction validity and adds them to unconfirmed transactions pool&lt;/span&gt;" style="text;whiteSpace=wrap;html=1;align=center;" vertex="1" parent="1">
          <mxGeometry x="281" y="146" width="190.2" height="39" as="geometry" />
        </mxCell>
        <mxCell id="kZWhtJNA0DSKdZdHqCCg-18" style="edgeStyle=orthogonalEdgeStyle;rounded=0;orthogonalLoop=1;jettySize=auto;html=1;exitX=0;exitY=0.5;exitDx=0;exitDy=0;entryX=1;entryY=0.5;entryDx=0;entryDy=0;" edge="1" parent="1" source="kZWhtJNA0DSKdZdHqCCg-13" target="kZWhtJNA0DSKdZdHqCCg-17">
          <mxGeometry relative="1" as="geometry" />
        </mxCell>
        <mxCell id="kZWhtJNA0DSKdZdHqCCg-13" value="Validator" style="rounded=1;whiteSpace=wrap;html=1;fontSize=14;" vertex="1" parent="1">
          <mxGeometry x="555" y="360" width="161" height="54.75" as="geometry" />
        </mxCell>
        <mxCell id="kZWhtJNA0DSKdZdHqCCg-15" value="&lt;div&gt;&lt;span style=&quot;orphans: 2; text-indent: 0px; widows: 2; background-color: rgb(255, 255, 255); text-decoration-thickness: initial; text-decoration-style: initial; text-decoration-color: initial; float: none; display: inline !important;&quot;&gt;&lt;span style=&quot;font-size: 14px;&quot;&gt;Initiates block proposal round. Selects validator based on stake weight&lt;/span&gt;&lt;/span&gt;&lt;/div&gt;" style="text;whiteSpace=wrap;html=1;align=center;" vertex="1" parent="1">
          <mxGeometry x="657" y="270" width="170" height="39" as="geometry" />
        </mxCell>
        <mxCell id="kZWhtJNA0DSKdZdHqCCg-29" style="rounded=0;orthogonalLoop=1;jettySize=auto;html=1;exitX=0;exitY=0.5;exitDx=0;exitDy=0;entryX=1;entryY=0.5;entryDx=0;entryDy=0;strokeColor=default;" edge="1" parent="1" source="kZWhtJNA0DSKdZdHqCCg-17" target="kZWhtJNA0DSKdZdHqCCg-21">
          <mxGeometry relative="1" as="geometry" />
        </mxCell>
        <mxCell id="kZWhtJNA0DSKdZdHqCCg-30" style="rounded=0;orthogonalLoop=1;jettySize=auto;html=1;exitX=0;exitY=0.5;exitDx=0;exitDy=0;entryX=1;entryY=0.5;entryDx=0;entryDy=0;" edge="1" parent="1" source="kZWhtJNA0DSKdZdHqCCg-17" target="kZWhtJNA0DSKdZdHqCCg-22">
          <mxGeometry relative="1" as="geometry" />
        </mxCell>
        <mxCell id="kZWhtJNA0DSKdZdHqCCg-31" style="rounded=0;orthogonalLoop=1;jettySize=auto;html=1;exitX=0;exitY=0.5;exitDx=0;exitDy=0;entryX=1;entryY=0.5;entryDx=0;entryDy=0;" edge="1" parent="1" source="kZWhtJNA0DSKdZdHqCCg-17" target="kZWhtJNA0DSKdZdHqCCg-23">
          <mxGeometry relative="1" as="geometry" />
        </mxCell>
        <mxCell id="kZWhtJNA0DSKdZdHqCCg-17" value="Creates new block" style="rounded=1;whiteSpace=wrap;html=1;fontSize=14;" vertex="1" parent="1">
          <mxGeometry x="257" y="360" width="161" height="54.75" as="geometry" />
        </mxCell>
        <mxCell id="kZWhtJNA0DSKdZdHqCCg-20" value="&lt;div&gt;&lt;span style=&quot;font-size: 14px; background-color: rgb(255, 255, 255);&quot;&gt;Checks eligibility and randomness factors&lt;/span&gt;&lt;/div&gt;" style="text;whiteSpace=wrap;html=1;align=center;" vertex="1" parent="1">
          <mxGeometry x="447" y="309" width="89" height="39" as="geometry" />
        </mxCell>
        <mxCell id="kZWhtJNA0DSKdZdHqCCg-36" style="edgeStyle=orthogonalEdgeStyle;rounded=0;orthogonalLoop=1;jettySize=auto;html=1;exitX=0;exitY=0.25;exitDx=0;exitDy=0;entryX=0;entryY=0.5;entryDx=0;entryDy=0;" edge="1" parent="1" source="kZWhtJNA0DSKdZdHqCCg-21" target="kZWhtJNA0DSKdZdHqCCg-33">
          <mxGeometry relative="1" as="geometry">
            <Array as="points">
              <mxPoint x="37" y="350" />
              <mxPoint x="37" y="639" />
            </Array>
          </mxGeometry>
        </mxCell>
        <mxCell id="kZWhtJNA0DSKdZdHqCCg-21" value="Validator 1" style="rounded=1;whiteSpace=wrap;html=1;fontSize=14;" vertex="1" parent="1">
          <mxGeometry x="99" y="340" width="90" height="40" as="geometry" />
        </mxCell>
        <mxCell id="kZWhtJNA0DSKdZdHqCCg-35" style="edgeStyle=orthogonalEdgeStyle;rounded=0;orthogonalLoop=1;jettySize=auto;html=1;entryX=0;entryY=0.5;entryDx=0;entryDy=0;" edge="1" parent="1" source="kZWhtJNA0DSKdZdHqCCg-22" target="kZWhtJNA0DSKdZdHqCCg-33">
          <mxGeometry relative="1" as="geometry">
            <Array as="points">
              <mxPoint x="37" y="420" />
              <mxPoint x="37" y="639" />
            </Array>
          </mxGeometry>
        </mxCell>
        <mxCell id="kZWhtJNA0DSKdZdHqCCg-22" value="Validator 2" style="rounded=1;whiteSpace=wrap;html=1;fontSize=14;" vertex="1" parent="1">
          <mxGeometry x="99" y="400" width="90" height="40" as="geometry" />
        </mxCell>
        <mxCell id="kZWhtJNA0DSKdZdHqCCg-34" style="edgeStyle=orthogonalEdgeStyle;rounded=0;orthogonalLoop=1;jettySize=auto;html=1;exitX=0;exitY=0.5;exitDx=0;exitDy=0;entryX=0;entryY=0.5;entryDx=0;entryDy=0;" edge="1" parent="1" source="kZWhtJNA0DSKdZdHqCCg-23" target="kZWhtJNA0DSKdZdHqCCg-33">
          <mxGeometry relative="1" as="geometry">
            <Array as="points">
              <mxPoint x="37" y="525" />
              <mxPoint x="37" y="639" />
            </Array>
          </mxGeometry>
        </mxCell>
        <mxCell id="kZWhtJNA0DSKdZdHqCCg-23" value="Validator N" style="rounded=1;whiteSpace=wrap;html=1;fontSize=14;" vertex="1" parent="1">
          <mxGeometry x="99" y="505" width="90" height="40" as="geometry" />
        </mxCell>
        <mxCell id="kZWhtJNA0DSKdZdHqCCg-25" value="&lt;span&gt;.&lt;/span&gt;" style="text;whiteSpace=wrap;html=1;align=center;fontColor=default;fontSize=39;" vertex="1" parent="1">
          <mxGeometry x="120.12" y="414.75" width="47.75" height="32" as="geometry" />
        </mxCell>
        <mxCell id="kZWhtJNA0DSKdZdHqCCg-26" style="edgeStyle=none;curved=1;rounded=0;orthogonalLoop=1;jettySize=auto;html=1;entryX=0.612;entryY=0.025;entryDx=0;entryDy=0;entryPerimeter=0;fontSize=12;startSize=8;endSize=8;" edge="1" parent="1" source="kZWhtJNA0DSKdZdHqCCg-25" target="kZWhtJNA0DSKdZdHqCCg-25">
          <mxGeometry relative="1" as="geometry" />
        </mxCell>
        <mxCell id="kZWhtJNA0DSKdZdHqCCg-27" value="&lt;span&gt;.&lt;/span&gt;" style="text;whiteSpace=wrap;html=1;align=center;fontColor=default;fontSize=39;" vertex="1" parent="1">
          <mxGeometry x="120.12" y="434.75" width="47.75" height="32" as="geometry" />
        </mxCell>
        <mxCell id="kZWhtJNA0DSKdZdHqCCg-28" value="&lt;span&gt;.&lt;/span&gt;" style="text;whiteSpace=wrap;html=1;align=center;fontColor=default;fontSize=39;" vertex="1" parent="1">
          <mxGeometry x="120.12" y="452.75" width="47.75" height="32" as="geometry" />
        </mxCell>
        <mxCell id="kZWhtJNA0DSKdZdHqCCg-32" value="&lt;div&gt;&lt;span style=&quot;background-color: initial; font-size: 14px;&quot;&gt;Signs block with private yey and broadcasts signed block to network&lt;/span&gt;&lt;/div&gt;" style="text;whiteSpace=wrap;html=1;align=center;" vertex="1" parent="1">
          <mxGeometry x="221.25" y="431.25" width="140" height="39" as="geometry" />
        </mxCell>
        <mxCell id="kZWhtJNA0DSKdZdHqCCg-38" style="edgeStyle=orthogonalEdgeStyle;rounded=0;orthogonalLoop=1;jettySize=auto;html=1;exitX=0.75;exitY=0;exitDx=0;exitDy=0;entryX=0;entryY=0.25;entryDx=0;entryDy=0;" edge="1" parent="1" source="kZWhtJNA0DSKdZdHqCCg-33" target="kZWhtJNA0DSKdZdHqCCg-37">
          <mxGeometry relative="1" as="geometry">
            <Array as="points">
              <mxPoint x="179" y="615" />
            </Array>
          </mxGeometry>
        </mxCell>
        <mxCell id="kZWhtJNA0DSKdZdHqCCg-39" style="edgeStyle=orthogonalEdgeStyle;rounded=0;orthogonalLoop=1;jettySize=auto;html=1;exitX=0.75;exitY=1;exitDx=0;exitDy=0;" edge="1" parent="1" source="kZWhtJNA0DSKdZdHqCCg-33">
          <mxGeometry relative="1" as="geometry">
            <mxPoint x="217" y="740" as="targetPoint" />
            <Array as="points">
              <mxPoint x="179" y="740" />
            </Array>
          </mxGeometry>
        </mxCell>
        <mxCell id="kZWhtJNA0DSKdZdHqCCg-33" value="&lt;div&gt;&lt;span style=&quot;background-color: initial; font-size: 14px;&quot;&gt;Is block valid?&lt;/span&gt;&lt;/div&gt;" style="text;whiteSpace=wrap;html=1;align=center;" vertex="1" parent="1">
          <mxGeometry x="73.99000000000001" y="624.51" width="140" height="29.99" as="geometry" />
        </mxCell>
        <mxCell id="kZWhtJNA0DSKdZdHqCCg-45" style="edgeStyle=orthogonalEdgeStyle;rounded=0;orthogonalLoop=1;jettySize=auto;html=1;exitX=1;exitY=0.5;exitDx=0;exitDy=0;" edge="1" parent="1" source="kZWhtJNA0DSKdZdHqCCg-37" target="kZWhtJNA0DSKdZdHqCCg-44">
          <mxGeometry relative="1" as="geometry" />
        </mxCell>
        <mxCell id="kZWhtJNA0DSKdZdHqCCg-37" value="Block added to blockchain" style="rounded=1;whiteSpace=wrap;html=1;fontSize=14;" vertex="1" parent="1">
          <mxGeometry x="292.5" y="591.13" width="90" height="96.75" as="geometry" />
        </mxCell>
        <mxCell id="kZWhtJNA0DSKdZdHqCCg-40" value="&lt;span style=&quot;font-size: 14px;&quot;&gt;Yes&lt;/span&gt;" style="text;whiteSpace=wrap;html=1;align=center;fontColor=default;" vertex="1" parent="1">
          <mxGeometry x="209.25" y="580" width="47.75" height="32" as="geometry" />
        </mxCell>
        <mxCell id="kZWhtJNA0DSKdZdHqCCg-41" value="&lt;span style=&quot;font-size: 14px;&quot;&gt;No&lt;/span&gt;" style="text;whiteSpace=wrap;html=1;align=center;fontColor=default;" vertex="1" parent="1">
          <mxGeometry x="126.12" y="687.88" width="47.75" height="32" as="geometry" />
        </mxCell>
        <mxCell id="kZWhtJNA0DSKdZdHqCCg-42" value="&lt;span style=&quot;font-size: 14px;&quot;&gt;Slash validator&#39;s stake&lt;/span&gt;" style="text;whiteSpace=wrap;html=1;align=center;fontColor=default;verticalAlign=middle;" vertex="1" parent="1">
          <mxGeometry x="217.25" y="720" width="165.25" height="40" as="geometry" />
        </mxCell>
        <mxCell id="kZWhtJNA0DSKdZdHqCCg-44" value="Update distributed ledger" style="rounded=1;whiteSpace=wrap;html=1;fontSize=14;" vertex="1" parent="1">
          <mxGeometry x="600" y="615.07" width="180" height="48.87" as="geometry" />
        </mxCell>
        <mxCell id="kZWhtJNA0DSKdZdHqCCg-46" value="&lt;div&gt;&lt;span style=&quot;font-size: 14px;&quot;&gt;Validator receives transaction fees and potential block reward&lt;/span&gt;&lt;/div&gt;" style="text;whiteSpace=wrap;html=1;align=center;fontColor=default;verticalAlign=middle;" vertex="1" parent="1">
          <mxGeometry x="408.88" y="591.13" width="165.25" height="40" as="geometry" />
        </mxCell>
      </root>
    </mxGraphModel>
  </diagram>
</mxfile>
